HIERARCHY
ROOT Hips
{
	OFFSET 0.00000 0.00000 0.00000
	CHANNELS 6 Xposition Yposition Zposition Zrotation Yrotation Xrotation 
	JOINT LHipJoint
	{
		OFFSET 0 0 0
		CHANNELS 3 Zrotation Yrotation Xrotation
		JOINT LeftUpLeg
		{
			OFFSET 1.59715 -1.91394 0.36268
			CHANNELS 3 Zrotation Yrotation Xrotation
			JOINT LeftLeg
			{
				OFFSET 2.53886 -6.97546 0.00000
				CHANNELS 3 Zrotation Yrotation Xrotation
				JOINT LeftFoot
				{
					OFFSET 2.77084 -7.61284 0.00000
					CHANNELS 3 Zrotation Yrotation Xrotation
					JOINT LeftToeBase
					{
						OFFSET 0.19855 -0.54550 2.06057
						CHANNELS 3 Zrotation Yrotation Xrotation
						End Site
						{
							OFFSET 0.00000 -0.00000 1.07182
						}
					}
				}
			}
		}
	}
	JOINT RHipJoint
	{
		OFFSET 0 0 0
		CHANNELS 3 Zrotation Yrotation Xrotation
		JOINT RightUpLeg
		{
			OFFSET -1.71086 -1.91394 0.36268
			CHANNELS 3 Zrotation Yrotation Xrotation
			JOINT RightLeg
			{
				OFFSET -2.59448 -7.12828 0.00000
				CHANNELS 3 Zrotation Yrotation Xrotation
				JOINT RightFoot
				{
					OFFSET -2.80237 -7.69945 0.00000
					CHANNELS 3 Zrotation Yrotation Xrotation
					JOINT RightToeBase
					{
						OFFSET -0.18280 -0.50224 2.06614
						CHANNELS 3 Zrotation Yrotation Xrotation
						End Site
						{
							OFFSET -0.00000 -0.00000 1.07055
						}
					}
				}
			}
		}
	}
	JOINT LowerBack
	{
		OFFSET 0 0 0
		CHANNELS 3 Zrotation Yrotation Xrotation
		JOINT Spine
		{
			OFFSET 0.04838 1.91536 -0.09733
			CHANNELS 3 Zrotation Yrotation Xrotation
			JOINT Spine1
			{
				OFFSET 0.04097 1.92183 -0.02751
				CHANNELS 3 Zrotation Yrotation Xrotation
				JOINT Neck
				{
					OFFSET 0 0 0
					CHANNELS 3 Zrotation Yrotation Xrotation
					JOINT Neck1
					{
						OFFSET 0.18766 3.12816 0.13727
						CHANNELS 3 Zrotation Yrotation Xrotation
						JOINT Head
						{
							OFFSET -0.11178 3.16074 0.02732
							CHANNELS 3 Zrotation Yrotation Xrotation
							End Site
							{
								OFFSET 0.47685 1.04189 0.57898
							}
						}
					}
				}
				JOINT LeftShoulder
				{
					OFFSET 0 0 0
					CHANNELS 3 Zrotation Yrotation Xrotation
					JOINT LeftArm
					{
						OFFSET 3.49325 0.99827 -0.10681
						CHANNELS 3 Zrotation Yrotation Xrotation
						JOINT LeftForeArm
						{
							OFFSET 5.12842 -0.00000 0.00000
							CHANNELS 3 Zrotation Yrotation Xrotation
							JOINT LeftHand
							{
								OFFSET 3.47396 -0.00000 0.00000
								CHANNELS 3 Zrotation Yrotation Xrotation
								JOINT LeftFingerBase
								{
									OFFSET 0 0 0
									CHANNELS 3 Zrotation Yrotation Xrotation
									JOINT LeftHandIndex1
									{
										OFFSET 0.72861 -0.00000 0.00000
										CHANNELS 3 Zrotation Yrotation Xrotation
										End Site
										{
											OFFSET 0.58742 -0.00000 0.00000
										}
									}
								}
								JOINT LThumb
								{
									OFFSET 0 0 0
									CHANNELS 3 Zrotation Yrotation Xrotation
									End Site
									{
										OFFSET 0.59639 -0.00000 0.59639
									}
								}
							}
						}
					}
				}
				JOINT RightShoulder
				{
					OFFSET 0 0 0
					CHANNELS 3 Zrotation Yrotation Xrotation
					JOINT RightArm
					{
						OFFSET -3.23261 1.50670 -0.18692
						CHANNELS 3 Zrotation Yrotation Xrotation
						JOINT RightForeArm
						{
							OFFSET -5.48477 -0.00000 -0.00000
							CHANNELS 3 Zrotation Yrotation Xrotation
							JOINT RightHand
							{
								OFFSET -3.47856 -0.00000 0.00000
								CHANNELS 3 Zrotation Yrotation Xrotation
								JOINT RightFingerBase
								{
									OFFSET 0 0 0
									CHANNELS 3 Zrotation Yrotation Xrotation
									JOINT RightHandIndex1
									{
										OFFSET -0.70997 -0.00000 0.00000
										CHANNELS 3 Zrotation Yrotation Xrotation
										End Site
										{
											OFFSET -0.57240 -0.00000 0.00000
										}
									}
								}
								JOINT RThumb
								{
									OFFSET 0 0 0
									CHANNELS 3 Zrotation Yrotation Xrotation
									End Site
									{
										OFFSET -0.58114 -0.00000 0.58114
									}
								}
							}
						}
					}
				}
			}
		}
	}
}
MOTION
Frames: 7
Frame Time: .0083333
-0.3202 18.2379 -3.146 0 0 0 0 0 0 -21 0 0 0 0 0 0 0 0 0 0 0 0 0 0 21 0 0 0 0 0 0 0 0 0 0 0 0 0 0 0 0 0 0 0 0 0 0 -16 0 0 21 0 0 11 0 0 0 -8 0 0 0 0 0 0 0 0 0 0 0 0 0 0 0 0 0 0 0 0 8 0 0 0 0 0 0 0 0 0 0 0 0 0 0 0 0 0
-0.3202 18.2379 -3.1460 -2.7700 -0.8524 6.3069 0.0000 0.0000 0.0000 -18.2353 -14.3236 -7.6321 2.0979 9.0672 26.0056 0.9351 4.4044 -20.3687 0.1072 2.1110 5.8125 0.0000 0.0000 0.0000 27.8114 13.7474 -11.1901 -2.7635 -10.3020 29.9605 -0.6867 -9.9599 -22.2742 -1.9788 -8.8218 25.2396 1.5519 -2.3089 -0.3451 2.8570 -2.9706 -3.9216 2.1631 -1.4832 -3.7715 -9.5208 -11.7620 -8.9405 1.5421 -14.9047 16.1167 0.5763 -7.6212 7.2473 -0.0000 0.0000 0.0000 -91.1182 4.6433 4.3553 16.9020 -26.7284 -4.0432 -0.0000 -0.0000 15.1630 8.9694 27.9983 4.2376 -7.1250 0.0000 -0.0000 -23.4379 56.6913 -6.9816 -0.0000 0.0000 0.0000 86.0696 -0.1983 7.9342 -13.0395 21.3450 -2.4676 0.0000 0.0000 1.9784 -22.6275 15.6189 -6.4032 7.1250 -0.0000 -0.0000 3.3761 -13.1512 2.5239
-0.3189 18.2375 -3.1439 -2.7225 -0.8650 6.4091 0.0000 0.0000 0.0000 -18.2736 -14.3155 -7.7386 2.0973 9.0660 26.0019 0.9322 4.3994 -20.3384 0.1046 2.0851 5.7408 0.0000 0.0000 0.0000 27.7274 13.8018 -11.3069 -2.7719 -10.3162 30.0070 -0.6902 -9.9364 -22.2846 -1.9805 -8.8252 25.2502 1.4867 -2.2995 -0.4303 2.8213 -2.9614 -3.9779 2.1602 -1.4772 -3.7805 -9.5038 -11.7604 -8.9422 1.5881 -14.9153 16.1634 0.5853 -7.6219 7.2656 0.0000 0.0000 0.0000 -90.9934 4.6925 4.5531 16.9861 -26.8395 -4.0811 -0.0000 -0.0000 15.0153 8.9536 27.9291 4.2205 -7.1250 0.0000 -0.0000 -23.4055 56.6249 -6.9329 0.0000 0.0000 0.0000 86.1133 -0.1775 7.6839 -12.9427 21.2033 -2.4325 0.0000 0.0000 2.1594 -22.6006 15.8051 -6.4685 7.1250 -0.0000 -0.0000 3.4061 -12.9558 2.5603
-0.3188 18.2383 -3.1414 -2.7944 -0.9615 6.5744 0.0000 0.0000 0.0000 -18.1592 -14.3387 -7.9360 2.1043 9.0800 26.0459 0.9401 4.3731 -20.3972 0.1116 2.1536 5.9304 0.0000 0.0000 0.0000 27.7703 13.9680 -11.4066 -2.7641 -10.3031 29.9639 -0.6721 -10.0238 -22.1985 -1.9410 -8.7420 24.9916 1.5116 -2.2481 -0.5767 2.8437 -2.8946 -4.0412 2.1629 -1.4444 -3.7654 -9.4668 -11.7699 -8.9446 1.5514 -14.9279 16.1793 0.5668 -7.6290 7.2660 -0.0000 0.0000 0.0000 -90.8826 4.7150 4.8485 17.0473 -26.9201 -4.1087 -0.0000 -0.0000 14.8546 8.9545 27.7451 4.1954 -7.1250 0.0000 -0.0000 -23.2777 56.4572 -6.7959 -0.0000 0.0000 0.0000 86.0787 -0.1116 7.4421 -12.8196 21.0223 -2.3882 0.0000 0.0000 2.3028 -22.5977 15.6933 -6.4233 7.1250 -0.0000 -0.0000 3.4008 -13.0755 2.5478
-0.3175 18.2395 -3.1368 -2.8385 -1.0346 6.6669 0.0000 0.0000 0.0000 -18.1109 -14.3663 -7.9927 2.1053 9.0820 26.0521 0.9517 4.3654 -20.5008 0.1168 2.2032 6.0676 0.0000 0.0000 0.0000 27.7946 14.0586 -11.4466 -2.7599 -10.2958 29.9401 -0.6647 -10.0659 -22.1692 -1.9327 -8.7245 24.9372 1.5259 -2.2135 -0.7359 2.8528 -2.8531 -4.0361 2.1557 -1.4244 -3.6713 -9.4334 -11.7692 -9.0302 1.5455 -14.9229 16.2016 0.5548 -7.6239 7.2845 -0.0000 0.0000 0.0000 -90.7762 4.6916 5.1555 17.1286 -27.0269 -4.1456 -0.0000 -0.0000 14.7229 8.7109 27.9549 4.1081 -7.1250 0.0000 -0.0000 -23.6647 56.5989 -7.0006 -0.0000 0.0000 0.0000 86.0380 0.0290 7.2273 -12.7029 20.8503 -2.3465 0.0000 0.0000 2.5240 -22.5725 15.5028 -6.3401 7.1250 -0.0000 -0.0000 3.4058 -13.2817 2.5368
-0.3133 18.2396 -3.1325 -2.8784 -1.0105 6.5740 0.0000 0.0000 0.0000 -18.1082 -14.3121 -7.8656 2.1032 9.0778 26.0390 0.9532 4.3607 -20.5119 0.1200 2.2334 6.1512 0.0000 0.0000 0.0000 27.8545 13.9703 -11.3311 -2.7525 -10.2833 29.8989 -0.6539 -10.1242 -22.1239 -1.8907 -8.6346 24.6587 1.5463 -2.2354 -0.6999 2.8807 -2.8817 -3.9829 2.1735 -1.4389 -3.6353 -9.4684 -11.7629 -9.1143 1.5519 -14.9002 16.1906 0.5592 -7.6129 7.2975 -0.0000 -0.0000 0.0000 -90.7715 4.6309 5.1570 17.1845 -27.1003 -4.1710 -0.0000 -0.0000 14.7093 8.5540 28.1926 4.0647 -7.1250 0.0000 -0.0000 -23.9877 56.7828 -7.2128 -0.0000 -0.0000 0.0000 85.9578 0.0299 7.2822 -12.7134 20.8658 -2.3502 0.0000 0.0000 2.5905 -22.5153 15.3463 -6.2606 7.1250 -0.0000 -0.0000 3.4346 -13.4558 2.5458
-0.3070 18.2390 -3.1277 -2.8510 -0.9591 6.3687 0.0000 0.0000 0.0000 -18.2251 -14.2905 -7.5814 2.0945 9.0602 25.9840 0.9439 4.4583 -20.4835 0.1205 2.2377 6.1629 0.0000 0.0000 0.0000 27.8563 13.8001 -11.1151 -2.7474 -10.2744 29.8699 -0.6757 -10.0363 -22.2436 -1.9355 -8.7305 24.9559 1.5260 -2.2730 -0.5350 2.8878 -2.9282 -3.9295 2.1993 -1.4611 -3.6705 -9.5509 -11.7440 -9.1202 1.5982 -14.8681 16.1678 0.5889 -7.5982 7.2996 -0.0000 0.0000 0.0000 -90.8094 4.6656 5.1875 17.2303 -27.1604 -4.1919 -0.0000 -0.0000 14.5783 8.8249 27.9066 4.1560 -7.1250 0.0000 -0.0000 -23.5179 56.5782 -6.9418 -0.0000 0.0000 0.0000 85.8610 -0.0534 7.4205 -12.7570 20.9301 -2.3658 0.0000 0.0000 2.5546 -22.4060 15.1988 -6.1691 7.1250 -0.0000 -0.0000 3.4994 -13.6264 2.5814
